# xmcd CD database file
#
# Track frame offsets:
#	150
#	19389
#	35002
#	50311
#	64749
#	76715
#	98390
#	109586
#	125725
#	142533
#	154755
#	164291
#	179183
#	201896
#	217444
#	234922
#	254026
#	274390
#	288350
#	304033
#
# Disc length: 4289 seconds
#
# Revision: 12
# Processed by: cddbd v1.5.1PL2 Copyright (c) Steve Scherf et al.
# Submitted via: CdAid (MTCDDB.DLL V2003.12.21)
#
DISCID=2310bf14
DTITLE=Various Artist - Down To The Promised Land - 5 Years Of Bloodshot Records (dis
DTITLE=c 1)
DYEAR=2000
DGENRE=Rock
TTITLE0=Yayhoos - Oh! Chicago
TTITLE1=Alejandro Escovedo - Evening Gown
TTITLE2=Old 97's - Making Love With You
TTITLE3=Neko Case and Jon Rauhouse - Favorite
TTITLE4=The Hollisters - Roses Are Blooming
TTITLE5=Anna Fermin's Trigger Gospel - Oh Lonesome Me
TTITLE6=The Meat Purveyors - Sunshine
TTITLE7=Rico Bell and The Snakehandlers - Money to Burn
TTITLE8=The Handsome Family - I Hear a Sweet Voice Calling
TTITLE9=Devil in a Woodpile - Easy Ridin' Mama
TTITLE10=Caitlin Cary - Please Take The Devil Out of Me
TTITLE11=The Blacks - Why Drunky?
TTITLE12=Supersuckers and Amy Nelson - The Least I Could Do
TTITLE13=The Roughnecks - Going Home
TTITLE14=The Riptones - It's Too Late
TTITLE15=Johnny Dowd - Hell or High Water
TTITLE16=Hazeldine - Unforgiven
TTITLE17=Moonshine Willy - Turn The Lights Down Low
TTITLE18=Texas Rubies - Blue Diamond Mine
TTITLE19=The Waco Brothers - Baba O'Riley
EXTD=ID3G:  17 YEAR: 2000
EXTT0=
EXTT1=
EXTT2=
EXTT3=
EXTT4=
EXTT5=
EXTT6=
EXTT7=
EXTT8=
EXTT9=
EXTT10=
EXTT11=
EXTT12=
EXTT13=
EXTT14=
EXTT15=
EXTT16=
EXTT17=
EXTT18=
EXTT19=
PLAYORDER=
